HIERARCHY
ROOT Hips
{
	OFFSET	0.00	0.00	0.00
	CHANNELS 6 Xposition Yposition Zposition Zrotation Xrotation Yrotation
	JOINT LeftUpLeg
	{
		OFFSET	 0.126116	-0.014019	-0.065224
		CHANNELS 3 Zrotation Xrotation Yrotation
		JOINT LeftLeg
		{
			OFFSET	 0.000000	 0.000000	 0.569914
			CHANNELS 3 Zrotation Xrotation Yrotation
			JOINT LeftFoot
			{
				OFFSET	 0.000000	 0.000000	 0.544423
				CHANNELS 3 Zrotation Xrotation Yrotation
				JOINT LeftToeBase
				{
					OFFSET	 0.000000	 0.000000	 0.207117
					CHANNELS 3 Zrotation Xrotation Yrotation
					End Site
					{
						OFFSET	 0.000000	 0.000000	 0.207117
					}
				}
			}
		}
	}
	JOINT RightUpLeg
	{
		OFFSET	-0.124023	-0.008373	-0.065224
		CHANNELS 3 Zrotation Xrotation Yrotation
		JOINT RightLeg
		{
			OFFSET	 0.000000	 0.000000	 0.570047
			CHANNELS 3 Zrotation Xrotation Yrotation
			JOINT RightFoot
			{
				OFFSET	 0.000000	 0.000000	 0.544354
				CHANNELS 3 Zrotation Xrotation Yrotation
				JOINT RightToeBase
				{
					OFFSET	 0.000000	 0.000000	 0.207540
					CHANNELS 3 Zrotation Xrotation Yrotation
					End Site
					{
						OFFSET	 0.000000	 0.000000	 0.207540
					}
				}
			}
		}
	}
	JOINT Spine
	{
		OFFSET	 0.000184	-0.007763	 0.117403
		CHANNELS 3 Zrotation Xrotation Yrotation
		JOINT Spine1
		{
			OFFSET	 0.000000	 0.000000	 0.137269
			CHANNELS 3 Zrotation Xrotation Yrotation
			JOINT Spine2
			{
				OFFSET	 0.000000	 0.000000	 0.156879
				CHANNELS 3 Zrotation Xrotation Yrotation
				JOINT LeftShoulder
				{
					OFFSET	 0.080501	-0.002496	 0.160144
					CHANNELS 3 Zrotation Xrotation Yrotation
					JOINT LeftArm
					{
						OFFSET	 0.000000	 0.000000	 0.164363
						CHANNELS 3 Zrotation Xrotation Yrotation
						JOINT LeftForeArm
						{
							OFFSET	 0.000000	 0.000000	 0.364576
							CHANNELS 3 Zrotation Xrotation Yrotation
							JOINT LeftHand
							{
								OFFSET	 0.000000	 0.000000	 0.360812
								CHANNELS 3 Zrotation Xrotation Yrotation
								JOINT LeftHandIndex1
								{
									OFFSET	 0.000000	 0.000000	 0.086006
									CHANNELS 3 Zrotation Xrotation Yrotation
									JOINT LeftHandIndex2
									{
										OFFSET	 0.000000	 0.000000	 0.047236
										CHANNELS 3 Zrotation Xrotation Yrotation
										JOINT LeftHandIndex3
										{
											OFFSET	-0.004284	-0.000551	 0.038166
											CHANNELS 3 Zrotation Xrotation Yrotation
											End Site
											{
												OFFSET	-0.004284	-0.000551	 0.038166
											}
										}
									}
								}
							}
						}
					}
				}
				JOINT Neck
				{
					OFFSET	 0.000000	 0.000000	 0.176489
					CHANNELS 3 Zrotation Xrotation Yrotation
					JOINT Head
					{
						OFFSET	 0.000000	-0.001747	 0.077940
						CHANNELS 3 Zrotation Xrotation Yrotation
						End Site
						{
							OFFSET	 0.000000	-0.001747	 0.077940
						}
					}
				}
				JOINT RightShoulder
				{
					OFFSET	-0.080363	 0.000306	 0.159706
					CHANNELS 3 Zrotation Xrotation Yrotation
					JOINT RightArm
					{
						OFFSET	 0.000000	 0.000000	 0.164196
						CHANNELS 3 Zrotation Xrotation Yrotation
						JOINT RightForeArm
						{
							OFFSET	 0.000000	 0.000000	 0.365611
							CHANNELS 3 Zrotation Xrotation Yrotation
							JOINT RightHand
							{
								OFFSET	 0.000000	 0.000000	 0.360648
								CHANNELS 3 Zrotation Xrotation Yrotation
								JOINT RightHandIndex1
								{
									OFFSET	 0.000000	 0.000000	 0.069977
									CHANNELS 3 Zrotation Xrotation Yrotation
									JOINT RightHandIndex2
									{
										OFFSET	 0.000000	 0.000000	 0.052305
										CHANNELS 3 Zrotation Xrotation Yrotation
										JOINT RightHandIndex3
										{
											OFFSET	 0.009002	-0.000782	 0.042196
											CHANNELS 3 Zrotation Xrotation Yrotation
											End Site
											{
												OFFSET	 0.009002	-0.000782	 0.042196
											}
										}
									}
								}
							}
						}
					}
				}
			}
		}
	}
}
MOTION
Frames:    9
Frame Time: 0.03333334
-0.058039	-2.239229	 1.206052	 4.983955	-1.196703	-2.964595	 7.707975	-10.327750	-173.329500	 0.935953	-37.501780	 0.355077	 52.841690	 81.028790	-56.905080	-2.369689	 31.567200	-0.068844	-13.590770	-31.474380	-176.330000	 10.245860	-48.883660	 8.334159	 10.033250	 74.538380	-5.184584	 2.358816	 33.022850	 0.103753	 1.971627	 8.696115	 1.815143	-1.257811	 1.954045	-0.401901	 0.486498	-2.138461	 0.357818	-93.942020	 59.003960	 175.375400	 17.305150	 35.929100	-35.909310	-17.073920	 3.465480	-12.229210	-10.822590	-14.315630	-10.441930	-4.869044	 19.248740	-2.786525	-3.883828	 21.443340	 2.205091	-4.808265	 5.545358	 0.146975	-0.074307	-5.077044	 0.184970	-1.595929	 2.229282	 2.613899	 89.777800	 61.650970	 179.989700	-19.434760	 51.209210	 15.021120	 13.935790	 3.421405	 12.244240	 5.478739	-1.107475	 0.775262	 6.293375	 24.806300	-0.538908	 1.894680	 44.626400	-7.001298	 0.545205	 24.193080	 3.558681
-0.059980	-2.283863	 1.204625	 6.133256	 0.005163	-3.037967	 6.336523	-8.970597	-173.687100	 1.405877	-36.522470	 0.626819	 55.418300	 81.972140	-59.806190	-2.367149	 31.983920	-0.078307	-17.037130	-34.455360	-177.807800	 10.737610	-41.185410	 7.627641	 16.950360	 79.667470	-14.083080	 2.359846	 32.871100	 0.100226	 1.981728	 7.872808	 1.680487	-1.653000	 1.703894	-0.550731	 1.256423	-2.207958	 0.759087	-94.250960	 58.995920	 174.717600	 16.086570	 32.816810	-37.699780	-17.671920	 3.435786	-12.170970	-9.939699	-14.061310	-11.161000	-4.856490	 19.569920	-2.807752	-3.863589	 21.701600	 2.184528	-4.798630	 5.658977	 0.140320	-0.016359	-5.139305	 0.275265	-0.652130	 2.093974	 2.520394	 89.641740	 61.816650	 179.663300	-18.729940	 52.543430	 12.589660	 12.729920	 3.376016	 12.188010	 4.815437	 0.487595	-0.170572	 6.258433	 22.406770	-0.579963	 2.155463	 42.421270	-7.232193	 1.045905	 21.950180	 3.313526
-0.061813	-2.335288	 1.200035	 6.530194	 0.875703	-3.481595	 5.749712	-6.623964	-173.828300	 1.632537	-35.234010	 0.738432	 60.625610	 83.145260	-65.091700	-2.360296	 33.040840	-0.102606	-17.077700	-36.023860	-178.372800	 10.186400	-31.154720	 5.712931	 38.991360	 82.104370	-37.788730	 2.354824	 33.596570	 0.117146	 2.697754	 6.977945	 1.934571	-1.916476	 2.320424	-0.630882	 1.946354	-2.471963	 1.044513	-94.457880	 58.884760	 174.294400	 14.096550	 29.815600	-39.654780	-18.642060	 3.392912	-12.082770	-9.936374	-13.959990	-10.269720	-4.830088	 20.131880	-2.822217	-3.829618	 22.131150	 2.150021	-4.774666	 5.940497	 0.123751	 0.016908	-5.257595	 0.337665	 0.081434	 1.937949	 2.526788	 89.469310	 62.008770	 179.244300	-17.447610	 53.709510	 9.966065	 10.678480	 3.306866	 12.104340	 3.887514	 1.911775	-2.176399	 6.205050	 19.504810	-0.690172	 2.474433	 39.456750	-7.510189	 1.675421	 19.009760	 3.029132
-0.065479	-2.397831	 1.192196	 6.880242	 1.060552	-3.780508	 4.936948	-2.711154	-174.400800	 1.928024	-33.332920	 0.865790	 55.486820	 83.780010	-59.986320	-2.335273	 36.278660	-0.180026	-16.132350	-35.990930	-178.554000	 10.042960	-19.835070	 3.703762	 39.645570	 80.031320	-39.594060	 2.335202	 36.089920	 0.177065	 3.253025	 6.837810	 2.150533	-2.147699	 2.810287	-0.678543	 2.525694	-2.895872	 1.256439	-94.544560	 58.920790	 174.104400	 11.561860	 27.856240	-41.246570	-18.720560	 3.322604	-11.962790	-10.192780	-14.049020	-10.437930	-4.845447	 20.504060	-3.021574	-3.788490	 22.644890	 2.108248	-4.732143	 6.437493	 0.094172	 0.107799	-5.398564	 0.350052	 0.748705	 1.829563	 2.272641	 89.358240	 61.954990	 178.978200	-15.561900	 54.498970	 6.397681	 8.614193	 3.217731	 11.984760	 3.535818	 2.466702	-4.276569	 6.164892	 16.286400	-0.681090	 2.866832	 35.349660	-7.844144	 2.341314	 15.759720	 2.759350
-0.073918	-2.471445	 1.177928	 7.266968	 0.785143	-2.908360	 4.005843	 2.023288	-176.581600	 2.028145	-31.917270	 0.885972	 24.075100	 81.119800	-27.840500	-2.205288	 46.520860	-0.466660	-14.217330	-38.508420	-179.375100	 7.310606	-14.756420	 2.067934	 7.799753	 67.701970	-4.202885	 2.340155	 35.503560	 0.162714	 3.751421	 6.849868	 1.408725	-2.205326	 3.987789	-0.675718	 2.893645	-3.401734	 1.265800	-94.474620	 59.317660	 174.187700	 8.963165	 26.956550	-43.053380	-18.703670	 3.215211	-11.780990	-10.812650	-14.178000	-11.109230	-4.888382	 20.679290	-3.325318	-3.757295	 23.029870	 2.076576	-4.652788	 7.355424	 0.038487	 0.234747	-5.477581	 0.253237	 1.398667	 1.945951	 2.259021	 89.354420	 61.497560	 178.985900	-13.884410	 54.432040	 2.871077	 6.659009	 3.092977	 11.804800	 3.078187	 2.542511	-5.799134	 6.243540	 12.645900	-0.112613	 3.096248	 32.682890	-8.034469	 3.012480	 12.349880	 2.522121
-0.083133	-2.550505	 1.165778	 8.459693	-0.140801	-1.651249	 4.192172	 8.252458	-179.856200	-0.393971	-28.395010	-0.355104	 6.438306	 70.161960	-6.135736	-1.915235	 57.704530	-0.915548	-9.692424	-38.726300	-178.254800	 5.823907	-13.312710	 1.521916	-4.562860	 51.920000	 13.603400	 2.333498	 36.285560	 0.181888	 3.687438	 7.194142	 0.217622	-2.487797	 5.280282	-0.585406	 2.843636	-3.829963	 1.059844	-94.385800	 59.037590	 174.423600	 7.518821	 26.090790	-44.033960	-18.928440	 3.095921	-11.571480	-10.617600	-12.242400	-10.280610	-4.895011	 20.942150	-3.452024	-3.731714	 23.342650	 2.050611	-4.564731	 8.359750	-0.024058	 0.377844	-5.406932	 0.290938	 1.695909	 2.274664	 2.520647	 89.201910	 61.406490	 178.628700	-12.730190	 54.296440	 0.776054	 5.744829	 2.963370	 11.593090	 2.549302	 2.824355	-5.340632	 6.346934	 9.714962	 0.401787	 3.322037	 29.846140	-8.217566	 3.458743	 10.015830	 2.384826
-0.093768	-2.637348	 1.157059	 9.970689	-0.765401	-0.196844	 5.821325	 12.766010	 175.642900	 1.267120	-28.412300	 0.435115	-0.678005	 50.551500	 5.173736	-1.114590	 70.154750	-1.882917	-12.300850	-36.374470	 178.533300	 6.819604	-14.690230	 1.932158	-5.448737	 43.366630	 15.085280	 2.354496	 33.642860	 0.118233	 3.569094	 7.049706	-0.699618	-3.361209	 6.326028	-1.661500	 2.446269	-4.492979	 1.318124	-94.205960	 59.494030	 174.738700	 7.805665	 26.459500	-43.750110	-17.762970	 2.939686	-11.314470	-9.237646	-9.394015	-10.372400	-4.807070	 21.305190	-3.050928	-3.664100	 24.156890	 1.981996	-4.496095	 9.131972	-0.073333	 0.386255	-5.345906	 0.222971	 1.549746	 2.417274	 2.390120	 89.017450	 60.700190	 178.236200	-11.841600	 53.431620	-0.952097	 6.623656	 2.824568	 11.332800	 3.355447	 3.133270	-3.488425	 6.377836	 8.683653	 0.537004	 3.389502	 28.954980	-8.271377	 3.655495	 8.971603	 2.329685
-0.106704	-2.745248	 1.152241	 8.748546	-1.473787	 1.348578	 16.344230	 13.111170	 167.187200	 0.180979	-33.638470	-0.095133	 2.500805	 35.211990	 10.135580	-2.347744	 34.766940	-0.143282	-13.384280	-33.752350	 174.775200	 5.171635	-20.484710	 2.081616	-3.808564	 45.746340	 15.323140	 2.373601	 30.616910	 0.048964	 5.799863	 7.330781	-1.702981	-3.788820	 5.823330	-2.228221	 2.087319	-4.641565	 1.044925	-94.046690	 59.768540	 175.043300	 8.837734	 28.069420	-41.554970	-15.506110	 2.719452	-10.946600	-7.925382	-7.628010	-9.715069	-4.738270	 21.824100	-2.801126	-3.580589	 25.138070	 1.897285	-4.427231	 9.897534	-0.123221	 0.274333	-5.407443	 0.176277	 0.961225	 2.228758	 2.468644	 89.088800	 60.264610	 178.423500	-12.082020	 52.874380	-1.907138	 7.686492	 2.633504	 10.965440	 4.553316	 2.630151	-1.447398	 6.406739	 10.109310	 0.645762	 3.291401	 30.243920	-8.192992	 3.566066	 9.447321	 2.354340
-0.118039	-2.842452	 1.154234	 6.679782	-2.448816	 2.159117	 20.071770	 9.006037	 162.924500	-3.581841	-45.869720	-2.826214	 5.730545	 44.578010	 6.337326	-2.381195	 29.447090	-0.021639	-12.933650	-34.692100	 173.140800	 5.225897	-33.302280	 3.293821	-3.787106	 56.309910	 15.545590	 2.374322	 30.485860	 0.046036	 8.976551	 7.920551	-2.279307	-3.519007	 4.290600	-2.067862	 1.747018	-4.225638	 0.668387	-93.956340	 59.469010	 175.282200	 10.381540	 29.779180	-38.234390	-13.810060	 2.492233	-10.538940	-7.924839	-7.294268	-8.762198	-4.638579	 23.174600	-2.611504	-3.501418	 26.044200	 1.817024	-4.309257	 11.187370	-0.209692	 0.139308	-5.315454	 0.077618	 0.201094	 1.819171	 2.362774	 89.386850	 60.278560	 179.100900	-13.509360	 53.267040	-1.662842	 8.919694	 2.431998	 10.552220	 5.545894	 1.578372	-0.211183	 6.384952	 12.923780	 0.531256	 3.039044	 33.367510	-7.987393	 3.206443	 11.341490	 2.460383
